<svg xmlns="http://www.w3.org/2000/svg" xmlns:xlink="http://www.w3.org/1999/xlink" width="500" zoomAndPan="magnify" viewBox="0 0 375 374.999991" height="500" preserveAspectRatio="xMidYMid meet" version="1.0"><defs><g/><clipPath id="7d96d51813"><path d="M 54 203 L 325 203 L 325 206.648438 L 54 206.648438 Z M 54 203 " clip-rule="nonzero"/></clipPath><clipPath id="8cb6ee6ab1"><path d="M 54 202.898438 L 325 202.898438 L 325 206.648438 L 54 206.648438 Z M 54 202.898438 " clip-rule="nonzero"/></clipPath></defs><g fill="#000000" fill-opacity="1"><g transform="translate(7.235433, 179.667937)"><g><path d="M 72.9375 -21.5625 L 26.359375 -21.5625 L 17.171875 0 L -0.671875 0 L 41.265625 -93.171875 L 58.296875 -93.171875 L 100.359375 0 L 82.25 0 Z M 67.21875 -35.140625 L 49.640625 -75.859375 L 32.203125 -35.140625 Z M 67.21875 -35.140625 "/></g></g></g><g fill="#000000" fill-opacity="1"><g transform="translate(102.119719, 179.667937)"><g><path d="M 12.515625 -93.171875 L 53.234375 -93.171875 C 63.171875 -93.171875 72 -91.238281 79.71875 -87.375 C 87.4375 -83.519531 93.425781 -78.0625 97.6875 -71 C 101.945312 -63.945312 104.078125 -55.804688 104.078125 -46.578125 C 104.078125 -37.347656 101.945312 -29.207031 97.6875 -22.15625 C 93.425781 -15.101562 87.4375 -9.644531 79.71875 -5.78125 C 72 -1.925781 63.171875 0 53.234375 0 L 12.515625 0 Z M 52.4375 -14.640625 C 59.269531 -14.640625 65.28125 -15.945312 70.46875 -18.5625 C 75.664062 -21.1875 79.660156 -24.914062 82.453125 -29.75 C 85.242188 -34.582031 86.640625 -40.191406 86.640625 -46.578125 C 86.640625 -52.972656 85.242188 -58.585938 82.453125 -63.421875 C 79.660156 -68.253906 75.664062 -71.976562 70.46875 -74.59375 C 65.28125 -77.21875 59.269531 -78.53125 52.4375 -78.53125 L 29.8125 -78.53125 L 29.8125 -14.640625 Z M 52.4375 -14.640625 "/></g></g></g><g fill="#000000" fill-opacity="1"><g transform="translate(207.251021, 179.667937)"><g><path d="M 98.09375 0 L 97.953125 -61.75 L 67.34375 -10.640625 L 59.625 -10.640625 L 29.015625 -60.953125 L 29.015625 0 L 12.515625 0 L 12.515625 -93.171875 L 26.75 -93.171875 L 63.75 -31.40625 L 100.09375 -93.171875 L 114.328125 -93.171875 L 114.453125 0 Z M 98.09375 0 "/></g></g></g><g fill="#000000" fill-opacity="1"><g transform="translate(329.549399, 179.667937)"><g><path d="M 12.515625 -93.171875 L 29.8125 -93.171875 L 29.8125 0 L 12.515625 0 Z M 12.515625 -93.171875 "/></g></g></g><g fill="#000000" fill-opacity="1"><g transform="translate(9.077153, 229.51979)"><g><path d="M 3.296875 -8.265625 L 0.0625 -8.265625 L 0.0625 -9.796875 L 8.375 -9.796875 L 8.375 -8.265625 L 5.125 -8.265625 L 5.125 0 L 3.296875 0 Z M 3.296875 -8.265625 "/></g></g></g><g fill="#000000" fill-opacity="1"><g transform="translate(18.90044, 229.51979)"><g><path d="M 10.03125 -9.796875 L 10.03125 0 L 8.203125 0 L 8.203125 -4.203125 L 3.140625 -4.203125 L 3.140625 0 L 1.3125 0 L 1.3125 -9.796875 L 3.140625 -9.796875 L 3.140625 -5.75 L 8.203125 -5.75 L 8.203125 -9.796875 Z M 10.03125 -9.796875 "/></g></g></g><g fill="#000000" fill-opacity="1"><g transform="translate(31.634109, 229.51979)"><g><path d="M 8.671875 -1.53125 L 8.671875 0 L 1.3125 0 L 1.3125 -9.796875 L 8.46875 -9.796875 L 8.46875 -8.28125 L 3.140625 -8.28125 L 3.140625 -5.71875 L 7.875 -5.71875 L 7.875 -4.234375 L 3.140625 -4.234375 L 3.140625 -1.53125 Z M 8.671875 -1.53125 "/></g></g></g><g fill="#000000" fill-opacity="1"><g transform="translate(42.408869, 229.51979)"><g/></g></g><g fill="#000000" fill-opacity="1"><g transform="translate(47.670702, 229.51979)"><g><path d="M 7.671875 -2.265625 L 2.765625 -2.265625 L 1.8125 0 L -0.0625 0 L 4.34375 -9.796875 L 6.125 -9.796875 L 10.5625 0 L 8.65625 0 Z M 7.0625 -3.703125 L 5.21875 -7.984375 L 3.390625 -3.703125 Z M 7.0625 -3.703125 "/></g></g></g><g fill="#000000" fill-opacity="1"><g transform="translate(59.550847, 229.51979)"><g><path d="M 4.359375 0.140625 C 3.597656 0.140625 2.863281 0.0351562 2.15625 -0.171875 C 1.457031 -0.390625 0.898438 -0.675781 0.484375 -1.03125 L 1.125 -2.453125 C 1.519531 -2.128906 2.007812 -1.867188 2.59375 -1.671875 C 3.175781 -1.472656 3.765625 -1.375 4.359375 -1.375 C 5.085938 -1.375 5.628906 -1.488281 5.984375 -1.71875 C 6.347656 -1.957031 6.53125 -2.265625 6.53125 -2.640625 C 6.53125 -2.921875 6.425781 -3.148438 6.21875 -3.328125 C 6.019531 -3.515625 5.765625 -3.660156 5.453125 -3.765625 C 5.148438 -3.867188 4.734375 -3.984375 4.203125 -4.109375 C 3.453125 -4.285156 2.84375 -4.460938 2.375 -4.640625 C 1.914062 -4.816406 1.519531 -5.09375 1.1875 -5.46875 C 0.863281 -5.851562 0.703125 -6.367188 0.703125 -7.015625 C 0.703125 -7.554688 0.847656 -8.046875 1.140625 -8.484375 C 1.429688 -8.929688 1.875 -9.285156 2.46875 -9.546875 C 3.0625 -9.804688 3.785156 -9.9375 4.640625 -9.9375 C 5.242188 -9.9375 5.832031 -9.859375 6.40625 -9.703125 C 6.988281 -9.554688 7.488281 -9.347656 7.90625 -9.078125 L 7.34375 -7.65625 C 6.90625 -7.90625 6.453125 -8.09375 5.984375 -8.21875 C 5.523438 -8.351562 5.078125 -8.421875 4.640625 -8.421875 C 3.921875 -8.421875 3.382812 -8.300781 3.03125 -8.0625 C 2.675781 -7.820312 2.5 -7.5 2.5 -7.09375 C 2.5 -6.8125 2.597656 -6.582031 2.796875 -6.40625 C 3.003906 -6.226562 3.257812 -6.085938 3.5625 -5.984375 C 3.875 -5.890625 4.296875 -5.773438 4.828125 -5.640625 C 5.554688 -5.472656 6.15625 -5.296875 6.625 -5.109375 C 7.09375 -4.929688 7.488281 -4.65625 7.8125 -4.28125 C 8.144531 -3.90625 8.3125 -3.398438 8.3125 -2.765625 C 8.3125 -2.222656 8.164062 -1.734375 7.875 -1.296875 C 7.582031 -0.859375 7.132812 -0.507812 6.53125 -0.25 C 5.9375 0.0078125 5.210938 0.140625 4.359375 0.140625 Z M 4.359375 0.140625 "/></g></g></g><g fill="#000000" fill-opacity="1"><g transform="translate(69.751927, 229.51979)"><g><path d="M 4.359375 0.140625 C 3.597656 0.140625 2.863281 0.0351562 2.15625 -0.171875 C 1.457031 -0.390625 0.898438 -0.675781 0.484375 -1.03125 L 1.125 -2.453125 C 1.519531 -2.128906 2.007812 -1.867188 2.59375 -1.671875 C 3.175781 -1.472656 3.765625 -1.375 4.359375 -1.375 C 5.085938 -1.375 5.628906 -1.488281 5.984375 -1.71875 C 6.347656 -1.957031 6.53125 -2.265625 6.53125 -2.640625 C 6.53125 -2.921875 6.425781 -3.148438 6.21875 -3.328125 C 6.019531 -3.515625 5.765625 -3.660156 5.453125 -3.765625 C 5.148438 -3.867188 4.734375 -3.984375 4.203125 -4.109375 C 3.453125 -4.285156 2.84375 -4.460938 2.375 -4.640625 C 1.914062 -4.816406 1.519531 -5.09375 1.1875 -5.46875 C 0.863281 -5.851562 0.703125 -6.367188 0.703125 -7.015625 C 0.703125 -7.554688 0.847656 -8.046875 1.140625 -8.484375 C 1.429688 -8.929688 1.875 -9.285156 2.46875 -9.546875 C 3.0625 -9.804688 3.785156 -9.9375 4.640625 -9.9375 C 5.242188 -9.9375 5.832031 -9.859375 6.40625 -9.703125 C 6.988281 -9.554688 7.488281 -9.347656 7.90625 -9.078125 L 7.34375 -7.65625 C 6.90625 -7.90625 6.453125 -8.09375 5.984375 -8.21875 C 5.523438 -8.351562 5.078125 -8.421875 4.640625 -8.421875 C 3.921875 -8.421875 3.382812 -8.300781 3.03125 -8.0625 C 2.675781 -7.820312 2.5 -7.5 2.5 -7.09375 C 2.5 -6.8125 2.597656 -6.582031 2.796875 -6.40625 C 3.003906 -6.226562 3.257812 -6.085938 3.5625 -5.984375 C 3.875 -5.890625 4.296875 -5.773438 4.828125 -5.640625 C 5.554688 -5.472656 6.15625 -5.296875 6.625 -5.109375 C 7.09375 -4.929688 7.488281 -4.65625 7.8125 -4.28125 C 8.144531 -3.90625 8.3125 -3.398438 8.3125 -2.765625 C 8.3125 -2.222656 8.164062 -1.734375 7.875 -1.296875 C 7.582031 -0.859375 7.132812 -0.507812 6.53125 -0.25 C 5.9375 0.0078125 5.210938 0.140625 4.359375 0.140625 Z M 4.359375 0.140625 "/></g></g></g><g fill="#000000" fill-opacity="1"><g transform="translate(79.953007, 229.51979)"><g><path d="M 5.890625 0.140625 C 4.890625 0.140625 3.988281 -0.0703125 3.1875 -0.5 C 2.382812 -0.9375 1.753906 -1.539062 1.296875 -2.3125 C 0.835938 -3.082031 0.609375 -3.945312 0.609375 -4.90625 C 0.609375 -5.851562 0.835938 -6.710938 1.296875 -7.484375 C 1.753906 -8.253906 2.382812 -8.851562 3.1875 -9.28125 C 3.988281 -9.71875 4.890625 -9.9375 5.890625 -9.9375 C 6.890625 -9.9375 7.789062 -9.71875 8.59375 -9.28125 C 9.394531 -8.851562 10.023438 -8.253906 10.484375 -7.484375 C 10.941406 -6.722656 11.171875 -5.863281 11.171875 -4.90625 C 11.171875 -3.9375 10.941406 -3.066406 10.484375 -2.296875 C 10.023438 -1.535156 9.394531 -0.9375 8.59375 -0.5 C 7.789062 -0.0703125 6.890625 0.140625 5.890625 0.140625 Z M 5.890625 -1.453125 C 6.546875 -1.453125 7.132812 -1.597656 7.65625 -1.890625 C 8.175781 -2.191406 8.585938 -2.601562 8.890625 -3.125 C 9.191406 -3.65625 9.34375 -4.25 9.34375 -4.90625 C 9.34375 -5.550781 9.191406 -6.140625 8.890625 -6.671875 C 8.585938 -7.203125 8.175781 -7.613281 7.65625 -7.90625 C 7.132812 -8.195312 6.546875 -8.34375 5.890625 -8.34375 C 5.234375 -8.34375 4.644531 -8.195312 4.125 -7.90625 C 3.601562 -7.613281 3.191406 -7.203125 2.890625 -6.671875 C 2.597656 -6.140625 2.453125 -5.550781 2.453125 -4.90625 C 2.453125 -4.25 2.597656 -3.65625 2.890625 -3.125 C 3.191406 -2.601562 3.601562 -2.191406 4.125 -1.890625 C 4.644531 -1.597656 5.234375 -1.453125 5.890625 -1.453125 Z M 5.890625 -1.453125 "/></g></g></g><g fill="#000000" fill-opacity="1"><g transform="translate(93.134425, 229.51979)"><g><path d="M 5.859375 0.140625 C 4.867188 0.140625 3.972656 -0.0703125 3.171875 -0.5 C 2.367188 -0.9375 1.738281 -1.535156 1.28125 -2.296875 C 0.832031 -3.066406 0.609375 -3.9375 0.609375 -4.90625 C 0.609375 -5.863281 0.835938 -6.722656 1.296875 -7.484375 C 1.753906 -8.253906 2.378906 -8.851562 3.171875 -9.28125 C 3.972656 -9.71875 4.867188 -9.9375 5.859375 -9.9375 C 6.660156 -9.9375 7.394531 -9.796875 8.0625 -9.515625 C 8.726562 -9.234375 9.289062 -8.828125 9.75 -8.296875 L 8.5625 -7.203125 C 7.851562 -7.960938 6.984375 -8.34375 5.953125 -8.34375 C 5.273438 -8.34375 4.671875 -8.195312 4.140625 -7.90625 C 3.609375 -7.613281 3.191406 -7.203125 2.890625 -6.671875 C 2.597656 -6.148438 2.453125 -5.5625 2.453125 -4.90625 C 2.453125 -4.238281 2.597656 -3.644531 2.890625 -3.125 C 3.191406 -2.601562 3.609375 -2.191406 4.140625 -1.890625 C 4.671875 -1.597656 5.273438 -1.453125 5.953125 -1.453125 C 6.984375 -1.453125 7.851562 -1.84375 8.5625 -2.625 L 9.75 -1.5 C 9.289062 -0.96875 8.726562 -0.5625 8.0625 -0.28125 C 7.394531 0 6.660156 0.140625 5.859375 0.140625 Z M 5.859375 0.140625 "/></g></g></g><g fill="#000000" fill-opacity="1"><g transform="translate(104.706736, 229.51979)"><g><path d="M 1.3125 -9.796875 L 3.140625 -9.796875 L 3.140625 0 L 1.3125 0 Z M 1.3125 -9.796875 "/></g></g></g><g fill="#000000" fill-opacity="1"><g transform="translate(110.57023, 229.51979)"><g><path d="M 7.671875 -2.265625 L 2.765625 -2.265625 L 1.8125 0 L -0.0625 0 L 4.34375 -9.796875 L 6.125 -9.796875 L 10.5625 0 L 8.65625 0 Z M 7.0625 -3.703125 L 5.21875 -7.984375 L 3.390625 -3.703125 Z M 7.0625 -3.703125 "/></g></g></g><g fill="#000000" fill-opacity="1"><g transform="translate(121.960546, 229.51979)"><g><path d="M 3.296875 -8.265625 L 0.0625 -8.265625 L 0.0625 -9.796875 L 8.375 -9.796875 L 8.375 -8.265625 L 5.125 -8.265625 L 5.125 0 L 3.296875 0 Z M 3.296875 -8.265625 "/></g></g></g><g fill="#000000" fill-opacity="1"><g transform="translate(131.783833, 229.51979)"><g><path d="M 1.3125 -9.796875 L 3.140625 -9.796875 L 3.140625 0 L 1.3125 0 Z M 1.3125 -9.796875 "/></g></g></g><g fill="#000000" fill-opacity="1"><g transform="translate(137.647327, 229.51979)"><g><path d="M 5.890625 0.140625 C 4.890625 0.140625 3.988281 -0.0703125 3.1875 -0.5 C 2.382812 -0.9375 1.753906 -1.539062 1.296875 -2.3125 C 0.835938 -3.082031 0.609375 -3.945312 0.609375 -4.90625 C 0.609375 -5.851562 0.835938 -6.710938 1.296875 -7.484375 C 1.753906 -8.253906 2.382812 -8.851562 3.1875 -9.28125 C 3.988281 -9.71875 4.890625 -9.9375 5.890625 -9.9375 C 6.890625 -9.9375 7.789062 -9.71875 8.59375 -9.28125 C 9.394531 -8.851562 10.023438 -8.253906 10.484375 -7.484375 C 10.941406 -6.722656 11.171875 -5.863281 11.171875 -4.90625 C 11.171875 -3.9375 10.941406 -3.066406 10.484375 -2.296875 C 10.023438 -1.535156 9.394531 -0.9375 8.59375 -0.5 C 7.789062 -0.0703125 6.890625 0.140625 5.890625 0.140625 Z M 5.890625 -1.453125 C 6.546875 -1.453125 7.132812 -1.597656 7.65625 -1.890625 C 8.175781 -2.191406 8.585938 -2.601562 8.890625 -3.125 C 9.191406 -3.65625 9.34375 -4.25 9.34375 -4.90625 C 9.34375 -5.550781 9.191406 -6.140625 8.890625 -6.671875 C 8.585938 -7.203125 8.175781 -7.613281 7.65625 -7.90625 C 7.132812 -8.195312 6.546875 -8.34375 5.890625 -8.34375 C 5.234375 -8.34375 4.644531 -8.195312 4.125 -7.90625 C 3.601562 -7.613281 3.191406 -7.203125 2.890625 -6.671875 C 2.597656 -6.140625 2.453125 -5.550781 2.453125 -4.90625 C 2.453125 -4.25 2.597656 -3.65625 2.890625 -3.125 C 3.191406 -2.601562 3.601562 -2.191406 4.125 -1.890625 C 4.644531 -1.597656 5.234375 -1.453125 5.890625 -1.453125 Z M 5.890625 -1.453125 "/></g></g></g><g fill="#000000" fill-opacity="1"><g transform="translate(150.828746, 229.51979)"><g><path d="M 10.03125 -9.796875 L 10.03125 0 L 8.53125 0 L 3.125 -6.640625 L 3.125 0 L 1.3125 0 L 1.3125 -9.796875 L 2.8125 -9.796875 L 8.21875 -3.15625 L 8.21875 -9.796875 Z M 10.03125 -9.796875 "/></g></g></g><g fill="#000000" fill-opacity="1"><g transform="translate(163.562415, 229.51979)"><g/></g></g><g fill="#000000" fill-opacity="1"><g transform="translate(168.824248, 229.51979)"><g><path d="M 5.890625 0.140625 C 4.890625 0.140625 3.988281 -0.0703125 3.1875 -0.5 C 2.382812 -0.9375 1.753906 -1.539062 1.296875 -2.3125 C 0.835938 -3.082031 0.609375 -3.945312 0.609375 -4.90625 C 0.609375 -5.851562 0.835938 -6.710938 1.296875 -7.484375 C 1.753906 -8.253906 2.382812 -8.851562 3.1875 -9.28125 C 3.988281 -9.71875 4.890625 -9.9375 5.890625 -9.9375 C 6.890625 -9.9375 7.789062 -9.71875 8.59375 -9.28125 C 9.394531 -8.851562 10.023438 -8.253906 10.484375 -7.484375 C 10.941406 -6.722656 11.171875 -5.863281 11.171875 -4.90625 C 11.171875 -3.9375 10.941406 -3.066406 10.484375 -2.296875 C 10.023438 -1.535156 9.394531 -0.9375 8.59375 -0.5 C 7.789062 -0.0703125 6.890625 0.140625 5.890625 0.140625 Z M 5.890625 -1.453125 C 6.546875 -1.453125 7.132812 -1.597656 7.65625 -1.890625 C 8.175781 -2.191406 8.585938 -2.601562 8.890625 -3.125 C 9.191406 -3.65625 9.34375 -4.25 9.34375 -4.90625 C 9.34375 -5.550781 9.191406 -6.140625 8.890625 -6.671875 C 8.585938 -7.203125 8.175781 -7.613281 7.65625 -7.90625 C 7.132812 -8.195312 6.546875 -8.34375 5.890625 -8.34375 C 5.234375 -8.34375 4.644531 -8.195312 4.125 -7.90625 C 3.601562 -7.613281 3.191406 -7.203125 2.890625 -6.671875 C 2.597656 -6.140625 2.453125 -5.550781 2.453125 -4.90625 C 2.453125 -4.25 2.597656 -3.65625 2.890625 -3.125 C 3.191406 -2.601562 3.601562 -2.191406 4.125 -1.890625 C 4.644531 -1.597656 5.234375 -1.453125 5.890625 -1.453125 Z M 5.890625 -1.453125 "/></g></g></g><g fill="#000000" fill-opacity="1"><g transform="translate(182.005666, 229.51979)"><g><path d="M 3.140625 -8.28125 L 3.140625 -5.296875 L 7.875 -5.296875 L 7.875 -3.75 L 3.140625 -3.75 L 3.140625 0 L 1.3125 0 L 1.3125 -9.796875 L 8.46875 -9.796875 L 8.46875 -8.28125 Z M 3.140625 -8.28125 "/></g></g></g><g fill="#000000" fill-opacity="1"><g transform="translate(192.31868, 229.51979)"><g/></g></g><g fill="#000000" fill-opacity="1"><g transform="translate(197.580513, 229.51979)"><g><path d="M 5.859375 0.140625 C 4.867188 0.140625 3.972656 -0.0703125 3.171875 -0.5 C 2.367188 -0.9375 1.738281 -1.535156 1.28125 -2.296875 C 0.832031 -3.066406 0.609375 -3.9375 0.609375 -4.90625 C 0.609375 -5.863281 0.835938 -6.722656 1.296875 -7.484375 C 1.753906 -8.253906 2.378906 -8.851562 3.171875 -9.28125 C 3.972656 -9.71875 4.867188 -9.9375 5.859375 -9.9375 C 6.660156 -9.9375 7.394531 -9.796875 8.0625 -9.515625 C 8.726562 -9.234375 9.289062 -8.828125 9.75 -8.296875 L 8.5625 -7.203125 C 7.851562 -7.960938 6.984375 -8.34375 5.953125 -8.34375 C 5.273438 -8.34375 4.671875 -8.195312 4.140625 -7.90625 C 3.609375 -7.613281 3.191406 -7.203125 2.890625 -6.671875 C 2.597656 -6.148438 2.453125 -5.5625 2.453125 -4.90625 C 2.453125 -4.238281 2.597656 -3.644531 2.890625 -3.125 C 3.191406 -2.601562 3.609375 -2.191406 4.140625 -1.890625 C 4.671875 -1.597656 5.273438 -1.453125 5.953125 -1.453125 C 6.984375 -1.453125 7.851562 -1.84375 8.5625 -2.625 L 9.75 -1.5 C 9.289062 -0.96875 8.726562 -0.5625 8.0625 -0.28125 C 7.394531 0 6.660156 0.140625 5.859375 0.140625 Z M 5.859375 0.140625 "/></g></g></g><g fill="#000000" fill-opacity="1"><g transform="translate(208.952143, 229.51979)"><g><path d="M 5.890625 0.140625 C 4.890625 0.140625 3.988281 -0.0703125 3.1875 -0.5 C 2.382812 -0.9375 1.753906 -1.539062 1.296875 -2.3125 C 0.835938 -3.082031 0.609375 -3.945312 0.609375 -4.90625 C 0.609375 -5.851562 0.835938 -6.710938 1.296875 -7.484375 C 1.753906 -8.253906 2.382812 -8.851562 3.1875 -9.28125 C 3.988281 -9.71875 4.890625 -9.9375 5.890625 -9.9375 C 6.890625 -9.9375 7.789062 -9.71875 8.59375 -9.28125 C 9.394531 -8.851562 10.023438 -8.253906 10.484375 -7.484375 C 10.941406 -6.722656 11.171875 -5.863281 11.171875 -4.90625 C 11.171875 -3.9375 10.941406 -3.066406 10.484375 -2.296875 C 10.023438 -1.535156 9.394531 -0.9375 8.59375 -0.5 C 7.789062 -0.0703125 6.890625 0.140625 5.890625 0.140625 Z M 5.890625 -1.453125 C 6.546875 -1.453125 7.132812 -1.597656 7.65625 -1.890625 C 8.175781 -2.191406 8.585938 -2.601562 8.890625 -3.125 C 9.191406 -3.65625 9.34375 -4.25 9.34375 -4.90625 C 9.34375 -5.550781 9.191406 -6.140625 8.890625 -6.671875 C 8.585938 -7.203125 8.175781 -7.613281 7.65625 -7.90625 C 7.132812 -8.195312 6.546875 -8.34375 5.890625 -8.34375 C 5.234375 -8.34375 4.644531 -8.195312 4.125 -7.90625 C 3.601562 -7.613281 3.191406 -7.203125 2.890625 -6.671875 C 2.597656 -6.140625 2.453125 -5.550781 2.453125 -4.90625 C 2.453125 -4.25 2.597656 -3.65625 2.890625 -3.125 C 3.191406 -2.601562 3.601562 -2.191406 4.125 -1.890625 C 4.644531 -1.597656 5.234375 -1.453125 5.890625 -1.453125 Z M 5.890625 -1.453125 "/></g></g></g><g fill="#000000" fill-opacity="1"><g transform="translate(222.133562, 229.51979)"><g><path d="M 10.3125 0 L 10.296875 -6.5 L 7.078125 -1.125 L 6.265625 -1.125 L 3.046875 -6.40625 L 3.046875 0 L 1.3125 0 L 1.3125 -9.796875 L 2.8125 -9.796875 L 6.703125 -3.296875 L 10.53125 -9.796875 L 12.03125 -9.796875 L 12.046875 0 Z M 10.3125 0 "/></g></g></g><g fill="#000000" fill-opacity="1"><g transform="translate(236.896096, 229.51979)"><g><path d="M 5.34375 -9.796875 C 6.195312 -9.796875 6.9375 -9.65625 7.5625 -9.375 C 8.195312 -9.09375 8.679688 -8.691406 9.015625 -8.171875 C 9.347656 -7.648438 9.515625 -7.03125 9.515625 -6.3125 C 9.515625 -5.601562 9.347656 -4.984375 9.015625 -4.453125 C 8.679688 -3.929688 8.195312 -3.53125 7.5625 -3.25 C 6.9375 -2.96875 6.195312 -2.828125 5.34375 -2.828125 L 3.140625 -2.828125 L 3.140625 0 L 1.3125 0 L 1.3125 -9.796875 Z M 5.265625 -4.375 C 6.054688 -4.375 6.65625 -4.539062 7.0625 -4.875 C 7.476562 -5.207031 7.6875 -5.6875 7.6875 -6.3125 C 7.6875 -6.9375 7.476562 -7.414062 7.0625 -7.75 C 6.65625 -8.09375 6.054688 -8.265625 5.265625 -8.265625 L 3.140625 -8.265625 L 3.140625 -4.375 Z M 5.265625 -4.375 "/></g></g></g><g fill="#000000" fill-opacity="1"><g transform="translate(248.314461, 229.51979)"><g><path d="M 5.53125 0.140625 C 4.175781 0.140625 3.117188 -0.238281 2.359375 -1 C 1.609375 -1.757812 1.234375 -2.847656 1.234375 -4.265625 L 1.234375 -9.796875 L 3.046875 -9.796875 L 3.046875 -4.34375 C 3.046875 -2.414062 3.878906 -1.453125 5.546875 -1.453125 C 7.191406 -1.453125 8.015625 -2.414062 8.015625 -4.34375 L 8.015625 -9.796875 L 9.8125 -9.796875 L 9.8125 -4.265625 C 9.8125 -2.847656 9.4375 -1.757812 8.6875 -1 C 7.9375 -0.238281 6.882812 0.140625 5.53125 0.140625 Z M 5.53125 0.140625 "/></g></g></g><g fill="#000000" fill-opacity="1"><g transform="translate(260.572352, 229.51979)"><g><path d="M 3.296875 -8.265625 L 0.0625 -8.265625 L 0.0625 -9.796875 L 8.375 -9.796875 L 8.375 -8.265625 L 5.125 -8.265625 L 5.125 0 L 3.296875 0 Z M 3.296875 -8.265625 "/></g></g></g><g fill="#000000" fill-opacity="1"><g transform="translate(270.39564, 229.51979)"><g><path d="M 8.671875 -1.53125 L 8.671875 0 L 1.3125 0 L 1.3125 -9.796875 L 8.46875 -9.796875 L 8.46875 -8.28125 L 3.140625 -8.28125 L 3.140625 -5.71875 L 7.875 -5.71875 L 7.875 -4.234375 L 3.140625 -4.234375 L 3.140625 -1.53125 Z M 8.671875 -1.53125 "/></g></g></g><g fill="#000000" fill-opacity="1"><g transform="translate(281.1704, 229.51979)"><g><path d="M 7.734375 0 L 5.71875 -2.875 C 5.632812 -2.863281 5.507812 -2.859375 5.34375 -2.859375 L 3.140625 -2.859375 L 3.140625 0 L 1.3125 0 L 1.3125 -9.796875 L 5.34375 -9.796875 C 6.195312 -9.796875 6.9375 -9.65625 7.5625 -9.375 C 8.195312 -9.09375 8.679688 -8.691406 9.015625 -8.171875 C 9.347656 -7.648438 9.515625 -7.03125 9.515625 -6.3125 C 9.515625 -5.570312 9.332031 -4.9375 8.96875 -4.40625 C 8.613281 -3.875 8.101562 -3.476562 7.4375 -3.21875 L 9.6875 0 Z M 7.6875 -6.3125 C 7.6875 -6.9375 7.476562 -7.414062 7.0625 -7.75 C 6.65625 -8.09375 6.054688 -8.265625 5.265625 -8.265625 L 3.140625 -8.265625 L 3.140625 -4.359375 L 5.265625 -4.359375 C 6.054688 -4.359375 6.65625 -4.523438 7.0625 -4.859375 C 7.476562 -5.203125 7.6875 -5.6875 7.6875 -6.3125 Z M 7.6875 -6.3125 "/></g></g></g><g fill="#000000" fill-opacity="1"><g transform="translate(292.798684, 229.51979)"><g/></g></g><g fill="#000000" fill-opacity="1"><g transform="translate(298.060517, 229.51979)"><g><path d="M 4.359375 0.140625 C 3.597656 0.140625 2.863281 0.0351562 2.15625 -0.171875 C 1.457031 -0.390625 0.898438 -0.675781 0.484375 -1.03125 L 1.125 -2.453125 C 1.519531 -2.128906 2.007812 -1.867188 2.59375 -1.671875 C 3.175781 -1.472656 3.765625 -1.375 4.359375 -1.375 C 5.085938 -1.375 5.628906 -1.488281 5.984375 -1.71875 C 6.347656 -1.957031 6.53125 -2.265625 6.53125 -2.640625 C 6.53125 -2.921875 6.425781 -3.148438 6.21875 -3.328125 C 6.019531 -3.515625 5.765625 -3.660156 5.453125 -3.765625 C 5.148438 -3.867188 4.734375 -3.984375 4.203125 -4.109375 C 3.453125 -4.285156 2.84375 -4.460938 2.375 -4.640625 C 1.914062 -4.816406 1.519531 -5.09375 1.1875 -5.46875 C 0.863281 -5.851562 0.703125 -6.367188 0.703125 -7.015625 C 0.703125 -7.554688 0.847656 -8.046875 1.140625 -8.484375 C 1.429688 -8.929688 1.875 -9.285156 2.46875 -9.546875 C 3.0625 -9.804688 3.785156 -9.9375 4.640625 -9.9375 C 5.242188 -9.9375 5.832031 -9.859375 6.40625 -9.703125 C 6.988281 -9.554688 7.488281 -9.347656 7.90625 -9.078125 L 7.34375 -7.65625 C 6.90625 -7.90625 6.453125 -8.09375 5.984375 -8.21875 C 5.523438 -8.351562 5.078125 -8.421875 4.640625 -8.421875 C 3.921875 -8.421875 3.382812 -8.300781 3.03125 -8.0625 C 2.675781 -7.820312 2.5 -7.5 2.5 -7.09375 C 2.5 -6.8125 2.597656 -6.582031 2.796875 -6.40625 C 3.003906 -6.226562 3.257812 -6.085938 3.5625 -5.984375 C 3.875 -5.890625 4.296875 -5.773438 4.828125 -5.640625 C 5.554688 -5.472656 6.15625 -5.296875 6.625 -5.109375 C 7.09375 -4.929688 7.488281 -4.65625 7.8125 -4.28125 C 8.144531 -3.90625 8.3125 -3.398438 8.3125 -2.765625 C 8.3125 -2.222656 8.164062 -1.734375 7.875 -1.296875 C 7.582031 -0.859375 7.132812 -0.507812 6.53125 -0.25 C 5.9375 0.0078125 5.210938 0.140625 4.359375 0.140625 Z M 4.359375 0.140625 "/></g></g></g><g fill="#000000" fill-opacity="1"><g transform="translate(308.261597, 229.51979)"><g><path d="M 5.859375 0.140625 C 4.867188 0.140625 3.972656 -0.0703125 3.171875 -0.5 C 2.367188 -0.9375 1.738281 -1.535156 1.28125 -2.296875 C 0.832031 -3.066406 0.609375 -3.9375 0.609375 -4.90625 C 0.609375 -5.863281 0.835938 -6.722656 1.296875 -7.484375 C 1.753906 -8.253906 2.378906 -8.851562 3.171875 -9.28125 C 3.972656 -9.71875 4.867188 -9.9375 5.859375 -9.9375 C 6.660156 -9.9375 7.394531 -9.796875 8.0625 -9.515625 C 8.726562 -9.234375 9.289062 -8.828125 9.75 -8.296875 L 8.5625 -7.203125 C 7.851562 -7.960938 6.984375 -8.34375 5.953125 -8.34375 C 5.273438 -8.34375 4.671875 -8.195312 4.140625 -7.90625 C 3.609375 -7.613281 3.191406 -7.203125 2.890625 -6.671875 C 2.597656 -6.148438 2.453125 -5.5625 2.453125 -4.90625 C 2.453125 -4.238281 2.597656 -3.644531 2.890625 -3.125 C 3.191406 -2.601562 3.609375 -2.191406 4.140625 -1.890625 C 4.671875 -1.597656 5.273438 -1.453125 5.953125 -1.453125 C 6.984375 -1.453125 7.851562 -1.84375 8.5625 -2.625 L 9.75 -1.5 C 9.289062 -0.96875 8.726562 -0.5625 8.0625 -0.28125 C 7.394531 0 6.660156 0.140625 5.859375 0.140625 Z M 5.859375 0.140625 "/></g></g></g><g fill="#000000" fill-opacity="1"><g transform="translate(319.833907, 229.51979)"><g><path d="M 1.3125 -9.796875 L 3.140625 -9.796875 L 3.140625 0 L 1.3125 0 Z M 1.3125 -9.796875 "/></g></g></g><g fill="#000000" fill-opacity="1"><g transform="translate(325.697402, 229.51979)"><g><path d="M 8.671875 -1.53125 L 8.671875 0 L 1.3125 0 L 1.3125 -9.796875 L 8.46875 -9.796875 L 8.46875 -8.28125 L 3.140625 -8.28125 L 3.140625 -5.71875 L 7.875 -5.71875 L 7.875 -4.234375 L 3.140625 -4.234375 L 3.140625 -1.53125 Z M 8.671875 -1.53125 "/></g></g></g><g fill="#000000" fill-opacity="1"><g transform="translate(336.472162, 229.51979)"><g><path d="M 10.03125 -9.796875 L 10.03125 0 L 8.53125 0 L 3.125 -6.640625 L 3.125 0 L 1.3125 0 L 1.3125 -9.796875 L 2.8125 -9.796875 L 8.21875 -3.15625 L 8.21875 -9.796875 Z M 10.03125 -9.796875 "/></g></g></g><g fill="#000000" fill-opacity="1"><g transform="translate(349.205831, 229.51979)"><g><path d="M 5.859375 0.140625 C 4.867188 0.140625 3.972656 -0.0703125 3.171875 -0.5 C 2.367188 -0.9375 1.738281 -1.535156 1.28125 -2.296875 C 0.832031 -3.066406 0.609375 -3.9375 0.609375 -4.90625 C 0.609375 -5.863281 0.835938 -6.722656 1.296875 -7.484375 C 1.753906 -8.253906 2.378906 -8.851562 3.171875 -9.28125 C 3.972656 -9.71875 4.867188 -9.9375 5.859375 -9.9375 C 6.660156 -9.9375 7.394531 -9.796875 8.0625 -9.515625 C 8.726562 -9.234375 9.289062 -8.828125 9.75 -8.296875 L 8.5625 -7.203125 C 7.851562 -7.960938 6.984375 -8.34375 5.953125 -8.34375 C 5.273438 -8.34375 4.671875 -8.195312 4.140625 -7.90625 C 3.609375 -7.613281 3.191406 -7.203125 2.890625 -6.671875 C 2.597656 -6.148438 2.453125 -5.5625 2.453125 -4.90625 C 2.453125 -4.238281 2.597656 -3.644531 2.890625 -3.125 C 3.191406 -2.601562 3.609375 -2.191406 4.140625 -1.890625 C 4.671875 -1.597656 5.273438 -1.453125 5.953125 -1.453125 C 6.984375 -1.453125 7.851562 -1.84375 8.5625 -2.625 L 9.75 -1.5 C 9.289062 -0.96875 8.726562 -0.5625 8.0625 -0.28125 C 7.394531 0 6.660156 0.140625 5.859375 0.140625 Z M 5.859375 0.140625 "/></g></g></g><g fill="#000000" fill-opacity="1"><g transform="translate(360.778141, 229.51979)"><g><path d="M 8.671875 -1.53125 L 8.671875 0 L 1.3125 0 L 1.3125 -9.796875 L 8.46875 -9.796875 L 8.46875 -8.28125 L 3.140625 -8.28125 L 3.140625 -5.71875 L 7.875 -5.71875 L 7.875 -4.234375 L 3.140625 -4.234375 L 3.140625 -1.53125 Z M 8.671875 -1.53125 "/></g></g></g><g fill="#000000" fill-opacity="1"><g transform="translate(7.577153, 249.019788)"><g><path d="M 1.3125 -9.796875 L 5.59375 -9.796875 C 6.644531 -9.796875 7.578125 -9.59375 8.390625 -9.1875 C 9.203125 -8.78125 9.832031 -8.207031 10.28125 -7.46875 C 10.726562 -6.726562 10.953125 -5.875 10.953125 -4.90625 C 10.953125 -3.925781 10.726562 -3.066406 10.28125 -2.328125 C 9.832031 -1.585938 9.203125 -1.015625 8.390625 -0.609375 C 7.578125 -0.203125 6.644531 0 5.59375 0 L 1.3125 0 Z M 5.515625 -1.546875 C 6.234375 -1.546875 6.863281 -1.679688 7.40625 -1.953125 C 7.957031 -2.222656 8.378906 -2.613281 8.671875 -3.125 C 8.960938 -3.632812 9.109375 -4.226562 9.109375 -4.90625 C 9.109375 -5.570312 8.960938 -6.160156 8.671875 -6.671875 C 8.378906 -7.179688 7.957031 -7.570312 7.40625 -7.84375 C 6.863281 -8.125 6.234375 -8.265625 5.515625 -8.265625 L 3.140625 -8.265625 L 3.140625 -1.546875 Z M 5.515625 -1.546875 "/></g></g></g><g fill="#000000" fill-opacity="1"><g transform="translate(20.53469, 249.019788)"><g><path d="M 8.671875 -1.53125 L 8.671875 0 L 1.3125 0 L 1.3125 -9.796875 L 8.46875 -9.796875 L 8.46875 -8.28125 L 3.140625 -8.28125 L 3.140625 -5.71875 L 7.875 -5.71875 L 7.875 -4.234375 L 3.140625 -4.234375 L 3.140625 -1.53125 Z M 8.671875 -1.53125 "/></g></g></g><g fill="#000000" fill-opacity="1"><g transform="translate(31.309451, 249.019788)"><g><path d="M 5.34375 -9.796875 C 6.195312 -9.796875 6.9375 -9.65625 7.5625 -9.375 C 8.195312 -9.09375 8.679688 -8.691406 9.015625 -8.171875 C 9.347656 -7.648438 9.515625 -7.03125 9.515625 -6.3125 C 9.515625 -5.601562 9.347656 -4.984375 9.015625 -4.453125 C 8.679688 -3.929688 8.195312 -3.53125 7.5625 -3.25 C 6.9375 -2.96875 6.195312 -2.828125 5.34375 -2.828125 L 3.140625 -2.828125 L 3.140625 0 L 1.3125 0 L 1.3125 -9.796875 Z M 5.265625 -4.375 C 6.054688 -4.375 6.65625 -4.539062 7.0625 -4.875 C 7.476562 -5.207031 7.6875 -5.6875 7.6875 -6.3125 C 7.6875 -6.9375 7.476562 -7.414062 7.0625 -7.75 C 6.65625 -8.09375 6.054688 -8.265625 5.265625 -8.265625 L 3.140625 -8.265625 L 3.140625 -4.375 Z M 5.265625 -4.375 "/></g></g></g><g fill="#000000" fill-opacity="1"><g transform="translate(42.237986, 249.019788)"><g><path d="M 7.671875 -2.265625 L 2.765625 -2.265625 L 1.8125 0 L -0.0625 0 L 4.34375 -9.796875 L 6.125 -9.796875 L 10.5625 0 L 8.65625 0 Z M 7.0625 -3.703125 L 5.21875 -7.984375 L 3.390625 -3.703125 Z M 7.0625 -3.703125 "/></g></g></g><g fill="#000000" fill-opacity="1"><g transform="translate(54.118131, 249.019788)"><g><path d="M 7.734375 0 L 5.71875 -2.875 C 5.632812 -2.863281 5.507812 -2.859375 5.34375 -2.859375 L 3.140625 -2.859375 L 3.140625 0 L 1.3125 0 L 1.3125 -9.796875 L 5.34375 -9.796875 C 6.195312 -9.796875 6.9375 -9.65625 7.5625 -9.375 C 8.195312 -9.09375 8.679688 -8.691406 9.015625 -8.171875 C 9.347656 -7.648438 9.515625 -7.03125 9.515625 -6.3125 C 9.515625 -5.570312 9.332031 -4.9375 8.96875 -4.40625 C 8.613281 -3.875 8.101562 -3.476562 7.4375 -3.21875 L 9.6875 0 Z M 7.6875 -6.3125 C 7.6875 -6.9375 7.476562 -7.414062 7.0625 -7.75 C 6.65625 -8.09375 6.054688 -8.265625 5.265625 -8.265625 L 3.140625 -8.265625 L 3.140625 -4.359375 L 5.265625 -4.359375 C 6.054688 -4.359375 6.65625 -4.523438 7.0625 -4.859375 C 7.476562 -5.203125 7.6875 -5.6875 7.6875 -6.3125 Z M 7.6875 -6.3125 "/></g></g></g><g fill="#000000" fill-opacity="1"><g transform="translate(65.606465, 249.019788)"><g><path d="M 3.296875 -8.265625 L 0.0625 -8.265625 L 0.0625 -9.796875 L 8.375 -9.796875 L 8.375 -8.265625 L 5.125 -8.265625 L 5.125 0 L 3.296875 0 Z M 3.296875 -8.265625 "/></g></g></g><g fill="#000000" fill-opacity="1"><g transform="translate(75.429752, 249.019788)"><g><path d="M 10.3125 0 L 10.296875 -6.5 L 7.078125 -1.125 L 6.265625 -1.125 L 3.046875 -6.40625 L 3.046875 0 L 1.3125 0 L 1.3125 -9.796875 L 2.8125 -9.796875 L 6.703125 -3.296875 L 10.53125 -9.796875 L 12.03125 -9.796875 L 12.046875 0 Z M 10.3125 0 "/></g></g></g><g fill="#000000" fill-opacity="1"><g transform="translate(90.192286, 249.019788)"><g><path d="M 8.671875 -1.53125 L 8.671875 0 L 1.3125 0 L 1.3125 -9.796875 L 8.46875 -9.796875 L 8.46875 -8.28125 L 3.140625 -8.28125 L 3.140625 -5.71875 L 7.875 -5.71875 L 7.875 -4.234375 L 3.140625 -4.234375 L 3.140625 -1.53125 Z M 8.671875 -1.53125 "/></g></g></g><g fill="#000000" fill-opacity="1"><g transform="translate(100.967047, 249.019788)"><g><path d="M 10.03125 -9.796875 L 10.03125 0 L 8.53125 0 L 3.125 -6.640625 L 3.125 0 L 1.3125 0 L 1.3125 -9.796875 L 2.8125 -9.796875 L 8.21875 -3.15625 L 8.21875 -9.796875 Z M 10.03125 -9.796875 "/></g></g></g><g fill="#000000" fill-opacity="1"><g transform="translate(113.700715, 249.019788)"><g><path d="M 3.296875 -8.265625 L 0.0625 -8.265625 L 0.0625 -9.796875 L 8.375 -9.796875 L 8.375 -8.265625 L 5.125 -8.265625 L 5.125 0 L 3.296875 0 Z M 3.296875 -8.265625 "/></g></g></g><g fill="#000000" fill-opacity="1"><g transform="translate(123.426041, 249.019788)"><g><path d="M 4.359375 0.140625 C 3.597656 0.140625 2.863281 0.0351562 2.15625 -0.171875 C 1.457031 -0.390625 0.898438 -0.675781 0.484375 -1.03125 L 1.125 -2.453125 C 1.519531 -2.128906 2.007812 -1.867188 2.59375 -1.671875 C 3.175781 -1.472656 3.765625 -1.375 4.359375 -1.375 C 5.085938 -1.375 5.628906 -1.488281 5.984375 -1.71875 C 6.347656 -1.957031 6.53125 -2.265625 6.53125 -2.640625 C 6.53125 -2.921875 6.425781 -3.148438 6.21875 -3.328125 C 6.019531 -3.515625 5.765625 -3.660156 5.453125 -3.765625 C 5.148438 -3.867188 4.734375 -3.984375 4.203125 -4.109375 C 3.453125 -4.285156 2.84375 -4.460938 2.375 -4.640625 C 1.914062 -4.816406 1.519531 -5.09375 1.1875 -5.46875 C 0.863281 -5.851562 0.703125 -6.367188 0.703125 -7.015625 C 0.703125 -7.554688 0.847656 -8.046875 1.140625 -8.484375 C 1.429688 -8.929688 1.875 -9.285156 2.46875 -9.546875 C 3.0625 -9.804688 3.785156 -9.9375 4.640625 -9.9375 C 5.242188 -9.9375 5.832031 -9.859375 6.40625 -9.703125 C 6.988281 -9.554688 7.488281 -9.347656 7.90625 -9.078125 L 7.34375 -7.65625 C 6.90625 -7.90625 6.453125 -8.09375 5.984375 -8.21875 C 5.523438 -8.351562 5.078125 -8.421875 4.640625 -8.421875 C 3.921875 -8.421875 3.382812 -8.300781 3.03125 -8.0625 C 2.675781 -7.820312 2.5 -7.5 2.5 -7.09375 C 2.5 -6.8125 2.597656 -6.582031 2.796875 -6.40625 C 3.003906 -6.226562 3.257812 -6.085938 3.5625 -5.984375 C 3.875 -5.890625 4.296875 -5.773438 4.828125 -5.640625 C 5.554688 -5.472656 6.15625 -5.296875 6.625 -5.109375 C 7.09375 -4.929688 7.488281 -4.65625 7.8125 -4.28125 C 8.144531 -3.90625 8.3125 -3.398438 8.3125 -2.765625 C 8.3125 -2.222656 8.164062 -1.734375 7.875 -1.296875 C 7.582031 -0.859375 7.132812 -0.507812 6.53125 -0.25 C 5.9375 0.0078125 5.210938 0.140625 4.359375 0.140625 Z M 4.359375 0.140625 "/></g></g></g><g fill="#000000" fill-opacity="1"><g transform="translate(133.627121, 249.019788)"><g/></g></g><g fill="#000000" fill-opacity="1"><g transform="translate(138.888954, 249.019788)"><g><path d="M 7.671875 -2.265625 L 2.765625 -2.265625 L 1.8125 0 L -0.0625 0 L 4.34375 -9.796875 L 6.125 -9.796875 L 10.5625 0 L 8.65625 0 Z M 7.0625 -3.703125 L 5.21875 -7.984375 L 3.390625 -3.703125 Z M 7.0625 -3.703125 "/></g></g></g><g fill="#000000" fill-opacity="1"><g transform="translate(150.279269, 249.019788)"><g><path d="M 3.296875 -8.265625 L 0.0625 -8.265625 L 0.0625 -9.796875 L 8.375 -9.796875 L 8.375 -8.265625 L 5.125 -8.265625 L 5.125 0 L 3.296875 0 Z M 3.296875 -8.265625 "/></g></g></g><g fill="#000000" fill-opacity="1"><g transform="translate(160.102556, 249.019788)"><g/></g></g><g fill="#000000" fill-opacity="1"><g transform="translate(165.364389, 249.019788)"><g><path d="M 10.3125 0 L 10.296875 -6.5 L 7.078125 -1.125 L 6.265625 -1.125 L 3.046875 -6.40625 L 3.046875 0 L 1.3125 0 L 1.3125 -9.796875 L 2.8125 -9.796875 L 6.703125 -3.296875 L 10.53125 -9.796875 L 12.03125 -9.796875 L 12.046875 0 Z M 10.3125 0 "/></g></g></g><g fill="#000000" fill-opacity="1"><g transform="translate(180.126923, 249.019788)"><g><path d="M 1.3125 -9.796875 L 3.140625 -9.796875 L 3.140625 0 L 1.3125 0 Z M 1.3125 -9.796875 "/></g></g></g><g fill="#000000" fill-opacity="1"><g transform="translate(185.990418, 249.019788)"><g><path d="M 10.03125 -9.796875 L 10.03125 0 L 8.53125 0 L 3.125 -6.640625 L 3.125 0 L 1.3125 0 L 1.3125 -9.796875 L 2.8125 -9.796875 L 8.21875 -3.15625 L 8.21875 -9.796875 Z M 10.03125 -9.796875 "/></g></g></g><g fill="#000000" fill-opacity="1"><g transform="translate(198.724086, 249.019788)"><g><path d="M 5.890625 0.140625 C 4.890625 0.140625 3.988281 -0.0703125 3.1875 -0.5 C 2.382812 -0.9375 1.753906 -1.539062 1.296875 -2.3125 C 0.835938 -3.082031 0.609375 -3.945312 0.609375 -4.90625 C 0.609375 -5.851562 0.835938 -6.710938 1.296875 -7.484375 C 1.753906 -8.253906 2.382812 -8.851562 3.1875 -9.28125 C 3.988281 -9.71875 4.890625 -9.9375 5.890625 -9.9375 C 6.890625 -9.9375 7.789062 -9.71875 8.59375 -9.28125 C 9.394531 -8.851562 10.023438 -8.253906 10.484375 -7.484375 C 10.941406 -6.722656 11.171875 -5.863281 11.171875 -4.90625 C 11.171875 -3.9375 10.941406 -3.066406 10.484375 -2.296875 C 10.023438 -1.535156 9.394531 -0.9375 8.59375 -0.5 C 7.789062 -0.0703125 6.890625 0.140625 5.890625 0.140625 Z M 5.890625 -1.453125 C 6.546875 -1.453125 7.132812 -1.597656 7.65625 -1.890625 C 8.175781 -2.191406 8.585938 -2.601562 8.890625 -3.125 C 9.191406 -3.65625 9.34375 -4.25 9.34375 -4.90625 C 9.34375 -5.550781 9.191406 -6.140625 8.890625 -6.671875 C 8.585938 -7.203125 8.175781 -7.613281 7.65625 -7.90625 C 7.132812 -8.195312 6.546875 -8.34375 5.890625 -8.34375 C 5.234375 -8.34375 4.644531 -8.195312 4.125 -7.90625 C 3.601562 -7.613281 3.191406 -7.203125 2.890625 -6.671875 C 2.597656 -6.140625 2.453125 -5.550781 2.453125 -4.90625 C 2.453125 -4.25 2.597656 -3.65625 2.890625 -3.125 C 3.191406 -2.601562 3.601562 -2.191406 4.125 -1.890625 C 4.644531 -1.597656 5.234375 -1.453125 5.890625 -1.453125 Z M 5.890625 -1.453125 "/></g></g></g><g fill="#000000" fill-opacity="1"><g transform="translate(211.905494, 249.019788)"><g><path d="M 7.734375 0 L 5.71875 -2.875 C 5.632812 -2.863281 5.507812 -2.859375 5.34375 -2.859375 L 3.140625 -2.859375 L 3.140625 0 L 1.3125 0 L 1.3125 -9.796875 L 5.34375 -9.796875 C 6.195312 -9.796875 6.9375 -9.65625 7.5625 -9.375 C 8.195312 -9.09375 8.679688 -8.691406 9.015625 -8.171875 C 9.347656 -7.648438 9.515625 -7.03125 9.515625 -6.3125 C 9.515625 -5.570312 9.332031 -4.9375 8.96875 -4.40625 C 8.613281 -3.875 8.101562 -3.476562 7.4375 -3.21875 L 9.6875 0 Z M 7.6875 -6.3125 C 7.6875 -6.9375 7.476562 -7.414062 7.0625 -7.75 C 6.65625 -8.09375 6.054688 -8.265625 5.265625 -8.265625 L 3.140625 -8.265625 L 3.140625 -4.359375 L 5.265625 -4.359375 C 6.054688 -4.359375 6.65625 -4.523438 7.0625 -4.859375 C 7.476562 -5.203125 7.6875 -5.6875 7.6875 -6.3125 Z M 7.6875 -6.3125 "/></g></g></g><g fill="#000000" fill-opacity="1"><g transform="translate(223.533789, 249.019788)"><g><path d="M 1.3125 -9.796875 L 3.140625 -9.796875 L 3.140625 0 L 1.3125 0 Z M 1.3125 -9.796875 "/></g></g></g><g fill="#000000" fill-opacity="1"><g transform="translate(229.397283, 249.019788)"><g><path d="M 3.296875 -8.265625 L 0.0625 -8.265625 L 0.0625 -9.796875 L 8.375 -9.796875 L 8.375 -8.265625 L 5.125 -8.265625 L 5.125 0 L 3.296875 0 Z M 3.296875 -8.265625 "/></g></g></g><g fill="#000000" fill-opacity="1"><g transform="translate(239.080632, 249.019788)"><g><path d="M 5.546875 -3.453125 L 5.546875 0 L 3.71875 0 L 3.71875 -3.4375 L -0.125 -9.796875 L 1.8125 -9.796875 L 4.6875 -5.03125 L 7.59375 -9.796875 L 9.375 -9.796875 Z M 5.546875 -3.453125 "/></g></g></g><g fill="#000000" fill-opacity="1"><g transform="translate(249.729451, 249.019788)"><g/></g></g><g fill="#000000" fill-opacity="1"><g transform="translate(254.991283, 249.019788)"><g><path d="M 1.3125 -9.796875 L 3.140625 -9.796875 L 3.140625 0 L 1.3125 0 Z M 1.3125 -9.796875 "/></g></g></g><g fill="#000000" fill-opacity="1"><g transform="translate(260.854778, 249.019788)"><g><path d="M 10.03125 -9.796875 L 10.03125 0 L 8.53125 0 L 3.125 -6.640625 L 3.125 0 L 1.3125 0 L 1.3125 -9.796875 L 2.8125 -9.796875 L 8.21875 -3.15625 L 8.21875 -9.796875 Z M 10.03125 -9.796875 "/></g></g></g><g fill="#000000" fill-opacity="1"><g transform="translate(273.588458, 249.019788)"><g><path d="M 4.359375 0.140625 C 3.597656 0.140625 2.863281 0.0351562 2.15625 -0.171875 C 1.457031 -0.390625 0.898438 -0.675781 0.484375 -1.03125 L 1.125 -2.453125 C 1.519531 -2.128906 2.007812 -1.867188 2.59375 -1.671875 C 3.175781 -1.472656 3.765625 -1.375 4.359375 -1.375 C 5.085938 -1.375 5.628906 -1.488281 5.984375 -1.71875 C 6.347656 -1.957031 6.53125 -2.265625 6.53125 -2.640625 C 6.53125 -2.921875 6.425781 -3.148438 6.21875 -3.328125 C 6.019531 -3.515625 5.765625 -3.660156 5.453125 -3.765625 C 5.148438 -3.867188 4.734375 -3.984375 4.203125 -4.109375 C 3.453125 -4.285156 2.84375 -4.460938 2.375 -4.640625 C 1.914062 -4.816406 1.519531 -5.09375 1.1875 -5.46875 C 0.863281 -5.851562 0.703125 -6.367188 0.703125 -7.015625 C 0.703125 -7.554688 0.847656 -8.046875 1.140625 -8.484375 C 1.429688 -8.929688 1.875 -9.285156 2.46875 -9.546875 C 3.0625 -9.804688 3.785156 -9.9375 4.640625 -9.9375 C 5.242188 -9.9375 5.832031 -9.859375 6.40625 -9.703125 C 6.988281 -9.554688 7.488281 -9.347656 7.90625 -9.078125 L 7.34375 -7.65625 C 6.90625 -7.90625 6.453125 -8.09375 5.984375 -8.21875 C 5.523438 -8.351562 5.078125 -8.421875 4.640625 -8.421875 C 3.921875 -8.421875 3.382812 -8.300781 3.03125 -8.0625 C 2.675781 -7.820312 2.5 -7.5 2.5 -7.09375 C 2.5 -6.8125 2.597656 -6.582031 2.796875 -6.40625 C 3.003906 -6.226562 3.257812 -6.085938 3.5625 -5.984375 C 3.875 -5.890625 4.296875 -5.773438 4.828125 -5.640625 C 5.554688 -5.472656 6.15625 -5.296875 6.625 -5.109375 C 7.09375 -4.929688 7.488281 -4.65625 7.8125 -4.28125 C 8.144531 -3.90625 8.3125 -3.398438 8.3125 -2.765625 C 8.3125 -2.222656 8.164062 -1.734375 7.875 -1.296875 C 7.582031 -0.859375 7.132812 -0.507812 6.53125 -0.25 C 5.9375 0.0078125 5.210938 0.140625 4.359375 0.140625 Z M 4.359375 0.140625 "/></g></g></g><g fill="#000000" fill-opacity="1"><g transform="translate(283.649576, 249.019788)"><g><path d="M 3.296875 -8.265625 L 0.0625 -8.265625 L 0.0625 -9.796875 L 8.375 -9.796875 L 8.375 -8.265625 L 5.125 -8.265625 L 5.125 0 L 3.296875 0 Z M 3.296875 -8.265625 "/></g></g></g><g fill="#000000" fill-opacity="1"><g transform="translate(293.472864, 249.019788)"><g><path d="M 1.3125 -9.796875 L 3.140625 -9.796875 L 3.140625 0 L 1.3125 0 Z M 1.3125 -9.796875 "/></g></g></g><g fill="#000000" fill-opacity="1"><g transform="translate(299.336358, 249.019788)"><g><path d="M 3.296875 -8.265625 L 0.0625 -8.265625 L 0.0625 -9.796875 L 8.375 -9.796875 L 8.375 -8.265625 L 5.125 -8.265625 L 5.125 0 L 3.296875 0 Z M 3.296875 -8.265625 "/></g></g></g><g fill="#000000" fill-opacity="1"><g transform="translate(308.977707, 249.019788)"><g><path d="M 5.53125 0.140625 C 4.175781 0.140625 3.117188 -0.238281 2.359375 -1 C 1.609375 -1.757812 1.234375 -2.847656 1.234375 -4.265625 L 1.234375 -9.796875 L 3.046875 -9.796875 L 3.046875 -4.34375 C 3.046875 -2.414062 3.878906 -1.453125 5.546875 -1.453125 C 7.191406 -1.453125 8.015625 -2.414062 8.015625 -4.34375 L 8.015625 -9.796875 L 9.8125 -9.796875 L 9.8125 -4.265625 C 9.8125 -2.847656 9.4375 -1.757812 8.6875 -1 C 7.9375 -0.238281 6.882812 0.140625 5.53125 0.140625 Z M 5.53125 0.140625 "/></g></g></g><g fill="#000000" fill-opacity="1"><g transform="translate(321.235611, 249.019788)"><g><path d="M 3.296875 -8.265625 L 0.0625 -8.265625 L 0.0625 -9.796875 L 8.375 -9.796875 L 8.375 -8.265625 L 5.125 -8.265625 L 5.125 0 L 3.296875 0 Z M 3.296875 -8.265625 "/></g></g></g><g fill="#000000" fill-opacity="1"><g transform="translate(331.058898, 249.019788)"><g><path d="M 1.3125 -9.796875 L 3.140625 -9.796875 L 3.140625 0 L 1.3125 0 Z M 1.3125 -9.796875 "/></g></g></g><g fill="#000000" fill-opacity="1"><g transform="translate(336.922392, 249.019788)"><g><path d="M 5.890625 0.140625 C 4.890625 0.140625 3.988281 -0.0703125 3.1875 -0.5 C 2.382812 -0.9375 1.753906 -1.539062 1.296875 -2.3125 C 0.835938 -3.082031 0.609375 -3.945312 0.609375 -4.90625 C 0.609375 -5.851562 0.835938 -6.710938 1.296875 -7.484375 C 1.753906 -8.253906 2.382812 -8.851562 3.1875 -9.28125 C 3.988281 -9.71875 4.890625 -9.9375 5.890625 -9.9375 C 6.890625 -9.9375 7.789062 -9.71875 8.59375 -9.28125 C 9.394531 -8.851562 10.023438 -8.253906 10.484375 -7.484375 C 10.941406 -6.722656 11.171875 -5.863281 11.171875 -4.90625 C 11.171875 -3.9375 10.941406 -3.066406 10.484375 -2.296875 C 10.023438 -1.535156 9.394531 -0.9375 8.59375 -0.5 C 7.789062 -0.0703125 6.890625 0.140625 5.890625 0.140625 Z M 5.890625 -1.453125 C 6.546875 -1.453125 7.132812 -1.597656 7.65625 -1.890625 C 8.175781 -2.191406 8.585938 -2.601562 8.890625 -3.125 C 9.191406 -3.65625 9.34375 -4.25 9.34375 -4.90625 C 9.34375 -5.550781 9.191406 -6.140625 8.890625 -6.671875 C 8.585938 -7.203125 8.175781 -7.613281 7.65625 -7.90625 C 7.132812 -8.195312 6.546875 -8.34375 5.890625 -8.34375 C 5.234375 -8.34375 4.644531 -8.195312 4.125 -7.90625 C 3.601562 -7.613281 3.191406 -7.203125 2.890625 -6.671875 C 2.597656 -6.140625 2.453125 -5.550781 2.453125 -4.90625 C 2.453125 -4.25 2.597656 -3.65625 2.890625 -3.125 C 3.191406 -2.601562 3.601562 -2.191406 4.125 -1.890625 C 4.644531 -1.597656 5.234375 -1.453125 5.890625 -1.453125 Z M 5.890625 -1.453125 "/></g></g></g><g fill="#000000" fill-opacity="1"><g transform="translate(350.103788, 249.019788)"><g><path d="M 10.03125 -9.796875 L 10.03125 0 L 8.53125 0 L 3.125 -6.640625 L 3.125 0 L 1.3125 0 L 1.3125 -9.796875 L 2.8125 -9.796875 L 8.21875 -3.15625 L 8.21875 -9.796875 Z M 10.03125 -9.796875 "/></g></g></g><g fill="#000000" fill-opacity="1"><g transform="translate(362.837468, 249.019788)"><g><path d="M 4.359375 0.140625 C 3.597656 0.140625 2.863281 0.0351562 2.15625 -0.171875 C 1.457031 -0.390625 0.898438 -0.675781 0.484375 -1.03125 L 1.125 -2.453125 C 1.519531 -2.128906 2.007812 -1.867188 2.59375 -1.671875 C 3.175781 -1.472656 3.765625 -1.375 4.359375 -1.375 C 5.085938 -1.375 5.628906 -1.488281 5.984375 -1.71875 C 6.347656 -1.957031 6.53125 -2.265625 6.53125 -2.640625 C 6.53125 -2.921875 6.425781 -3.148438 6.21875 -3.328125 C 6.019531 -3.515625 5.765625 -3.660156 5.453125 -3.765625 C 5.148438 -3.867188 4.734375 -3.984375 4.203125 -4.109375 C 3.453125 -4.285156 2.84375 -4.460938 2.375 -4.640625 C 1.914062 -4.816406 1.519531 -5.09375 1.1875 -5.46875 C 0.863281 -5.851562 0.703125 -6.367188 0.703125 -7.015625 C 0.703125 -7.554688 0.847656 -8.046875 1.140625 -8.484375 C 1.429688 -8.929688 1.875 -9.285156 2.46875 -9.546875 C 3.0625 -9.804688 3.785156 -9.9375 4.640625 -9.9375 C 5.242188 -9.9375 5.832031 -9.859375 6.40625 -9.703125 C 6.988281 -9.554688 7.488281 -9.347656 7.90625 -9.078125 L 7.34375 -7.65625 C 6.90625 -7.90625 6.453125 -8.09375 5.984375 -8.21875 C 5.523438 -8.351562 5.078125 -8.421875 4.640625 -8.421875 C 3.921875 -8.421875 3.382812 -8.300781 3.03125 -8.0625 C 2.675781 -7.820312 2.5 -7.5 2.5 -7.09375 C 2.5 -6.8125 2.597656 -6.582031 2.796875 -6.40625 C 3.003906 -6.226562 3.257812 -6.085938 3.5625 -5.984375 C 3.875 -5.890625 4.296875 -5.773438 4.828125 -5.640625 C 5.554688 -5.472656 6.15625 -5.296875 6.625 -5.109375 C 7.09375 -4.929688 7.488281 -4.65625 7.8125 -4.28125 C 8.144531 -3.90625 8.3125 -3.398438 8.3125 -2.765625 C 8.3125 -2.222656 8.164062 -1.734375 7.875 -1.296875 C 7.582031 -0.859375 7.132812 -0.507812 6.53125 -0.25 C 5.9375 0.0078125 5.210938 0.140625 4.359375 0.140625 Z M 4.359375 0.140625 "/></g></g></g><g clip-path="url(#7d96d51813)"><path fill="#000000" d="M 54.855469 203.121094 L 324.597656 203.121094 L 324.597656 206.421875 L 54.855469 206.421875 Z M 54.855469 203.121094 " fill-opacity="1" fill-rule="nonzero"/></g><g clip-path="url(#8cb6ee6ab1)"><path fill="#000000" d="M 324.808594 206.648438 L 54.648438 206.648438 L 54.648438 202.898438 L 324.808594 202.898438 Z M 55.066406 206.195312 L 324.390625 206.195312 L 324.390625 203.347656 L 55.066406 203.347656 Z M 55.066406 206.195312 " fill-opacity="1" fill-rule="nonzero"/></g></svg>